<svg preserveAspectRatio="none" width="100%" height="100%" overflow="visible" style="display: block;" viewBox="0 0 197 41" fill="none" xmlns="http://www.w3.org/2000/svg">
<g id="Group 26">
<g id="AMO">
<path id="Vector" d="M191.62 35.1031C188.193 38.4963 183.884 40.1929 178.692 40.1929C173.501 40.1929 169.174 38.4963 165.713 35.1031C162.286 31.6759 160.572 27.4005 160.572 22.2767C160.572 17.1529 162.286 12.8944 165.713 9.50121C169.174 6.07405 173.501 4.36047 178.692 4.36047C183.884 4.36047 188.193 6.07405 191.62 9.50121C195.081 12.8944 196.812 17.1529 196.812 22.2767C196.812 27.4005 195.081 31.6759 191.62 35.1031ZM172.686 28.6899C174.315 30.4205 176.317 31.2857 178.692 31.2857C181.067 31.2857 183.069 30.4205 184.698 28.6899C186.327 26.9594 187.141 24.8216 187.141 22.2767C187.141 19.7318 186.327 17.5941 184.698 15.8635C183.069 14.133 181.067 13.2677 178.692 13.2677C176.317 13.2677 174.315 14.133 172.686 15.8635C171.057 17.5941 170.243 19.7318 170.243 22.2767C170.243 24.8216 171.057 26.9594 172.686 28.6899Z" fill="var(--fill-0, #9FE8B1)"/>
<path id="Vector_2" d="M119.378 39.4288H109.809L114.339 10.5694C114.678 8.56743 115.51 7.02351 116.833 5.93768C118.19 4.85184 119.904 4.30893 121.974 4.30893C126.08 4.30893 128.591 6.09037 129.507 9.65326L134.189 27.8749L138.821 9.80596C139.296 7.97361 140.212 6.59935 141.57 5.68318C142.961 4.76701 144.624 4.30893 146.558 4.30893C148.594 4.30893 150.256 4.86881 151.546 5.98858C152.835 7.07441 153.633 8.65226 153.938 10.7221L158.01 39.4288H148.492L145.743 15.2012L140.297 35.0516C139.89 36.5446 139.127 37.6813 138.007 38.4618C136.921 39.2083 135.648 39.5815 134.189 39.5815C132.73 39.5815 131.441 39.2083 130.321 38.4618C129.201 37.7152 128.455 36.6464 128.082 35.2552L122.686 15.1503L119.378 39.4288Z" fill="var(--fill-0, #9FE8B1)"/>
<path id="Vector_3" d="M72.8891 39.3167L81.7454 10.4065C82.3562 8.40445 83.425 6.8775 84.952 5.8256C86.5129 4.73976 88.2434 4.19685 90.1436 4.19685C92.0438 4.19685 93.7574 4.73976 95.2844 5.8256C96.8452 6.8775 97.9311 8.40445 98.5419 10.4065L107.398 39.3167H97.7784L96.2005 33.5143H84.1376L82.5089 39.3167H72.8891ZM89.7873 13.155L86.4789 25.1161H93.8592L90.6017 13.155C90.4999 12.8156 90.3642 12.646 90.1945 12.646C90.0249 12.646 89.8891 12.8156 89.7873 13.155Z" fill="var(--fill-0, #9FE8B1)"/>
</g>
<path id="Vector (Stroke)" d="M58.4013 16.4077C58.4013 15.0367 57.8704 13.765 56.9359 12.7711L56.8441 12.6761L56.8434 12.6751C55.7755 11.5897 54.2537 10.8884 52.4899 10.8884C50.7382 10.8884 49.0669 11.6426 47.9769 12.8442L47.9773 12.8446C47.3434 13.5439 46.9639 14.557 46.7068 16.959L46.7064 16.9628C46.6595 17.3981 46.6187 17.8452 46.5743 18.339C46.5528 18.5786 46.5301 18.8313 46.506 19.0908L46.4287 19.8825L46.4284 19.885C46.0934 23.0967 44.8429 29.1753 39.2851 31.8841L39.2848 31.8838C36.5086 33.2384 33.5528 33.2941 30.9951 32.5231L30.9925 32.5224L30.9899 32.5214C27.8412 31.5689 25.1015 29.3098 23.6137 26.2688V26.2685C22.8922 24.7939 22.3746 23.0214 22.1212 22.2765C21.822 21.3969 21.6266 21.0047 21.4765 20.7872L21.4146 20.7038C21.3228 20.5884 21.225 20.4774 21.1207 20.3706L21.1185 20.3684L21.1162 20.3658C20.1401 19.3633 18.5985 18.6989 17.0021 18.6989H16.5974C13.2645 18.699 10.8885 21.2616 10.8884 24.0255V39.0969H0V24.0255C8.90817e-05 14.8927 7.61265 7.81058 16.5974 7.81056H17.0021C21.3947 7.81056 25.7947 9.56302 28.9174 12.7701H28.9171C29.2762 13.1383 29.6164 13.5237 29.9366 13.9263L30.0632 14.0887C31.3538 15.7699 32.0133 17.5463 32.4296 18.7702C32.9155 20.1986 33.0606 20.7659 33.337 21.3627L33.394 21.4829L33.3947 21.4839L33.4195 21.5309C33.5535 21.7658 33.8311 22.0039 34.139 22.0983C34.2515 22.1321 34.3333 22.1365 34.3819 22.1335C34.4239 22.1308 34.4617 22.1222 34.5105 22.0983L34.5124 22.0974L34.5147 22.0964C34.5236 22.0921 34.5539 22.0784 34.6171 22.0078C34.6903 21.9261 34.8117 21.7612 34.95 21.4652C35.2446 20.8345 35.4784 19.9085 35.5986 18.7579C35.6445 18.3161 35.6846 17.8672 35.7298 17.3643C35.7736 16.8761 35.822 16.3396 35.8806 15.7961C36.179 13.01 36.8081 8.95383 39.9099 5.53184L39.9105 5.53119L40.0613 5.36686C43.2532 1.94169 47.8065 0 52.4899 0C57.2355 1.00821e-05 61.5345 1.91852 64.604 5.03788L64.8708 5.31531C67.5943 8.214 69.2897 12.1105 69.2897 16.4077V39.0992H58.4013V16.4077Z" fill="var(--fill-0, #9FE8B1)"/>
</g>
</svg>
