<svg preserveAspectRatio="none" width="100%" height="100%" overflow="visible" style="display: block;" viewBox="0 0 89 117" fill="none" xmlns="http://www.w3.org/2000/svg">
<g id="star/simple/smoothcorner" opacity="0.21" filter="url(#filter0_f_203_655)">
<path d="M44.5 16L46.1146 30.6176C47.5587 43.6917 54.4303 53.9387 63.1976 56.0922L73 58.5L63.1976 60.9078C54.4303 63.0613 47.5587 73.3083 46.1146 86.3824L44.5 101L42.8854 86.3824C41.4413 73.3083 34.5697 63.0613 25.8024 60.9078L16 58.5L25.8024 56.0922C34.5697 53.9387 41.4413 43.6917 42.8854 30.6176L44.5 16Z" fill="url(#paint0_linear_203_655)"/>
<path d="M44.5 16L46.1146 30.6176C47.5587 43.6917 54.4303 53.9387 63.1976 56.0922L73 58.5L63.1976 60.9078C54.4303 63.0613 47.5587 73.3083 46.1146 86.3824L44.5 101L42.8854 86.3824C41.4413 73.3083 34.5697 63.0613 25.8024 60.9078L16 58.5L25.8024 56.0922C34.5697 53.9387 41.4413 43.6917 42.8854 30.6176L44.5 16Z" stroke="var(--stroke-0, white)"/>
</g>
<defs>
<filter id="filter0_f_203_655" x="0" y="0" width="89" height="117" filterUnits="userSpaceOnUse" color-interpolation-filters="sRGB">
<feFlood flood-opacity="0" result="BackgroundImageFix"/>
<feBlend mode="normal" in="SourceGraphic" in2="BackgroundImageFix" result="shape"/>
<feGaussianBlur stdDeviation="8" result="effect1_foregroundBlur_203_655"/>
</filter>
<linearGradient id="paint0_linear_203_655" x1="44.5" y1="16" x2="44.5" y2="101" gradientUnits="userSpaceOnUse">
<stop stop-color="white"/>
<stop offset="1" stop-color="white" stop-opacity="0.1"/>
</linearGradient>
</defs>
</svg>
