<svg preserveAspectRatio="none" width="100%" height="100%" overflow="visible" style="display: block;" viewBox="0 0 61 75" fill="none" xmlns="http://www.w3.org/2000/svg">
<g id="star/simple/smoothcorner" opacity="0.21" filter="url(#filter0_f_203_646)">
<path d="M30.5 16L31.3215 23.3948C32.0562 30.0087 35.5523 35.1925 40.0128 36.282L45 37.5L40.0128 38.718C35.5523 39.8075 32.0562 44.9913 31.3215 51.6052L30.5 59L29.6785 51.6052C28.9438 44.9913 25.4477 39.8075 20.9872 38.718L16 37.5L20.9872 36.282C25.4477 35.1925 28.9438 30.0087 29.6785 23.3948L30.5 16Z" fill="url(#paint0_linear_203_646)"/>
<path d="M30.5 16L31.3215 23.3948C32.0562 30.0087 35.5523 35.1925 40.0128 36.282L45 37.5L40.0128 38.718C35.5523 39.8075 32.0562 44.9913 31.3215 51.6052L30.5 59L29.6785 51.6052C28.9438 44.9913 25.4477 39.8075 20.9872 38.718L16 37.5L20.9872 36.282C25.4477 35.1925 28.9438 30.0087 29.6785 23.3948L30.5 16Z" stroke="var(--stroke-0, white)"/>
</g>
<defs>
<filter id="filter0_f_203_646" x="0" y="0" width="61" height="75" filterUnits="userSpaceOnUse" color-interpolation-filters="sRGB">
<feFlood flood-opacity="0" result="BackgroundImageFix"/>
<feBlend mode="normal" in="SourceGraphic" in2="BackgroundImageFix" result="shape"/>
<feGaussianBlur stdDeviation="8" result="effect1_foregroundBlur_203_646"/>
</filter>
<linearGradient id="paint0_linear_203_646" x1="30.5" y1="16" x2="30.5" y2="59" gradientUnits="userSpaceOnUse">
<stop stop-color="white"/>
<stop offset="1" stop-color="white" stop-opacity="0.1"/>
</linearGradient>
</defs>
</svg>
