<svg preserveAspectRatio="none" width="100%" height="100%" overflow="visible" style="display: block;" viewBox="0 0 91 124" fill="none" xmlns="http://www.w3.org/2000/svg">
<g id="star/simple/smoothcorner" opacity="0.08" filter="url(#filter0_f_203_694)">
<path d="M45.5 7L47.6811 25.917C49.632 42.8363 58.9146 56.0972 70.7581 58.8841L84 62L70.7581 65.1159C58.9146 67.9028 49.632 81.1637 47.6811 98.0831L45.5 117L43.3189 98.0831C41.368 81.1637 32.0854 67.9028 20.2419 65.1159L7 62L20.2419 58.8841C32.0854 56.0972 41.368 42.8363 43.3189 25.9169L45.5 7Z" fill="url(#paint0_linear_203_694)"/>
<path d="M45.5 7L47.6811 25.917C49.632 42.8363 58.9146 56.0972 70.7581 58.8841L84 62L70.7581 65.1159C58.9146 67.9028 49.632 81.1637 47.6811 98.0831L45.5 117L43.3189 98.0831C41.368 81.1637 32.0854 67.9028 20.2419 65.1159L7 62L20.2419 58.8841C32.0854 56.0972 41.368 42.8363 43.3189 25.9169L45.5 7Z" stroke="var(--stroke-0, white)"/>
</g>
<defs>
<filter id="filter0_f_203_694" x="0" y="0" width="91" height="124" filterUnits="userSpaceOnUse" color-interpolation-filters="sRGB">
<feFlood flood-opacity="0" result="BackgroundImageFix"/>
<feBlend mode="normal" in="SourceGraphic" in2="BackgroundImageFix" result="shape"/>
<feGaussianBlur stdDeviation="3.5" result="effect1_foregroundBlur_203_694"/>
</filter>
<linearGradient id="paint0_linear_203_694" x1="45.5" y1="7" x2="45.5" y2="117" gradientUnits="userSpaceOnUse">
<stop stop-color="white"/>
<stop offset="1" stop-color="white" stop-opacity="0.1"/>
</linearGradient>
</defs>
</svg>
