<svg preserveAspectRatio="none" width="100%" height="100%" overflow="visible" style="display: block;" viewBox="0 0 914 993" fill="none" xmlns="http://www.w3.org/2000/svg">
<g id="Vector" opacity="0.1" filter="url(#filter0_f_203_640)">
<path d="M785.281 314.704C788.574 319.192 791.59 323.893 794.328 328.83C838.026 283.396 849.491 232.962 826.583 186.78C821.236 177.698 813.471 165.944 807.546 157.203C838.988 199.624 831.374 264.718 785.281 314.704Z" fill="var(--fill-0, white)"/>
<path d="M804.253 350.692C806.242 356.184 807.974 361.89 809.429 367.767C848.699 337.271 864.57 296.774 855.8 261.449L855.651 260.893C853.127 251.404 849.105 238.903 846.09 229.564C860.206 267.881 845.812 314.939 804.253 350.692Z" fill="var(--fill-0, white)"/>
<path d="M813.984 393.347C814.712 399.673 815.183 406.169 815.397 412.773C849.79 392.556 866.944 364.39 865.96 336.608L865.404 324.855L863.65 305.087C867.372 336.074 850.453 369.092 813.984 393.347Z" fill="var(--fill-0, white)"/>
<path d="M814.798 441.217C814.306 448.184 813.557 455.257 812.573 462.417C842.496 450.342 859.137 431.579 861.875 410.914L864.463 388.111L865.105 380.119C863.479 403.605 846.475 425.98 814.798 441.217Z" fill="var(--fill-0, white)"/>
<path d="M806.991 492.955C805.322 500.349 803.418 507.829 801.258 515.351C827.16 509.923 842.282 498.554 846.325 484.108C848.892 475.089 851.736 462.929 854.068 453.847C850.282 470.708 834.454 484.92 806.991 492.955Z" fill="var(--fill-0, white)"/>
<path d="M790.885 547.129C788.083 554.78 785.046 562.452 781.773 570.124C803.975 570.38 816.979 565.059 820.829 555.934C824.594 547.087 829.086 535.098 832.615 526.165C828.529 537.384 814.584 545.099 790.885 547.129Z" fill="var(--fill-0, white)"/>
<path d="M766.801 602.329C762.908 610.023 758.78 617.695 754.438 625.345C773.089 630.688 783.591 630.56 786.157 626.008L801.729 596.987C798.542 603.376 786.928 605.599 766.801 602.329Z" fill="var(--fill-0, white)"/>
<path d="M719.509 679.648C734.653 689.799 742.182 694.329 742.588 693.752L745.989 689.008L761.86 665.778C760.469 667.979 751.636 665.329 734.995 657.166C730.054 664.731 724.878 672.232 719.509 679.648Z" fill="var(--fill-0, white)"/>
<path d="M677.437 731.514C688.902 746.537 692.859 755.449 690.206 758.312L702.612 744.293L713.114 731.877C713.734 729.462 709.371 724.013 695.81 710.314C693.051 713.67 690.228 716.982 687.383 720.294C684.068 724.098 680.752 727.838 677.437 731.514Z" fill="var(--fill-0, white)"/>
<path d="M632.199 815.329L654.465 794.984L656.925 792.633C661.716 788.039 660.112 776.713 650.893 758.89C644.455 765.087 637.974 771.049 631.429 776.755C638.98 796.673 638.744 809.666 632.199 815.329Z" fill="var(--fill-0, white)"/>
<path d="M583.817 813.534C587.047 838.601 581.764 855.42 570.385 863.049C578.406 857.621 588.779 849.885 596.672 844.243C605.891 837.319 608.906 822.082 603.816 799.237C597.164 804.259 590.512 809.025 583.817 813.534Z" fill="var(--fill-0, white)"/>
<path d="M535.863 841.529C534.045 872.196 522.452 892.605 505.041 901.11C513.468 896.943 524.441 890.874 532.74 886.45C547.498 878.158 556.268 859.203 555.862 830.951C549.167 834.733 542.494 838.281 535.863 841.529Z" fill="var(--fill-0, white)"/>
<path d="M488.743 860.357C480.743 897.285 460.958 920.985 436.083 928.55C444.895 925.836 456.445 921.583 465.151 918.548C498.454 905.085 505.298 869.033 508.228 853.646C501.683 856.147 495.181 858.391 488.743 860.357Z" fill="var(--fill-0, white)"/>
<path d="M462.177 866.939C455.932 868.114 449.772 869.012 443.697 869.631C427.784 913.932 396.727 940.175 362.74 943.466L373.092 942.27L393.69 939C423.784 933.465 449.793 908.141 462.177 866.939Z" fill="var(--fill-0, white)"/>
<path d="M418.907 870.486C413.132 870.273 407.486 869.781 401.946 868.99C375.787 921.498 329.288 948.51 285.483 941.992C292.306 942.975 301.482 943.701 308.326 944.428L318.208 944.941C357.928 946.437 397.369 919.467 418.907 870.486Z" fill="var(--fill-0, white)"/>
<path d="M379.616 863.904C374.483 862.259 369.499 860.335 364.686 858.07C322.315 919.275 263.58 941.97 207.563 918.805C217.188 923.015 230.278 927.994 240.138 931.584C264.907 938.615 328.047 946.095 379.616 863.904Z" fill="var(--fill-0, white)"/>
<path d="M345.564 846.829C345.051 846.466 344.559 846.081 344.046 845.718C340.281 842.897 336.645 839.841 333.18 836.507C285.034 894.849 198.579 923.549 137.278 870.614C144.336 877.09 154.239 885.21 161.661 891.258L165.062 893.759C217.637 931.798 298.102 911.026 345.564 846.829Z" fill="var(--fill-0, white)"/>
<path d="M318.058 819.047C314.807 814.517 311.856 809.773 309.161 804.793C252.886 859.758 164.699 872.452 112.167 833.173C100.81 824.689 92.0613 814.453 85.8585 803.084C91.0988 812.23 98.7133 824.07 104.531 832.874C110.028 840.503 116.787 847.406 124.808 853.39C177.318 892.69 263.858 877.303 318.058 819.047Z" fill="var(--fill-0, white)"/>
<path d="M299.471 782.76C297.525 777.225 295.856 771.498 294.445 765.579C234.769 811.461 143.802 816.804 91.27 777.525C73.1535 763.976 61.967 746.879 57.5394 728.437L58.3739 731.877C60.6198 740.49 64.2558 751.794 66.8867 760.278C72.512 776.05 82.9926 790.411 98.3927 801.908C150.924 841.187 240.951 832.618 299.471 782.76Z" fill="var(--fill-0, white)"/>
<path d="M85.0888 741.066C137.62 780.345 229.4 779.833 290.081 739.891C289.397 733.544 288.991 727.026 288.82 720.38C227.839 755.791 135.823 752.649 83.2919 713.37C60.2345 696.124 48.6203 674.797 48 653.276L48.6418 667.915L50.0747 684.691C52.3633 705.399 63.935 725.252 85.0888 741.066Z" fill="var(--fill-0, white)"/>
<path d="M291.964 670.587C231.711 694.457 140.294 681.956 87.7623 642.698C61.1757 622.823 49.6466 599.893 52.5555 578.993L49.5827 604.68L49.1764 609.723C47.5508 631.308 59.1009 653.939 84.4255 672.895C136.957 712.174 228.823 720.679 289.611 691.872C290.145 684.862 290.937 677.767 291.964 670.587Z" fill="var(--fill-0, white)"/>
<path d="M104.275 567.431C75.2283 545.719 63.4858 523.408 68.5122 505.841C65.9028 514.86 62.972 527.02 60.5979 536.102C49.4542 601.303 195.713 665.394 297.717 640.005C299.428 632.59 301.396 625.11 303.578 617.566C246.041 629.149 156.806 606.71 104.275 567.431Z" fill="var(--fill-0, white)"/>
<path d="M132.38 489.621C101.708 466.691 89.0669 446.581 94.3927 434.058C90.5855 442.905 86.0295 454.894 82.4575 463.827C77.0247 478.615 89.1955 499.794 119.268 522.297C171.8 561.576 259.046 589.999 314.165 585.767C317.01 578.117 320.09 570.444 323.405 562.751C270.425 561.618 184.89 528.879 132.38 489.621Z" fill="var(--fill-0, white)"/>
<path d="M338.57 530.524C342.506 522.831 346.676 515.159 351.061 507.508C304.497 493.617 224.16 450.513 171.629 411.234C139.973 387.556 125.642 370.695 129.428 364.048L113.707 393.048C109.087 402.216 122.626 420.509 153.919 443.91C206.429 483.167 289.097 521.955 338.57 530.524Z" fill="var(--fill-0, white)"/>
<path d="M370.675 475.709C375.658 468.165 380.856 460.686 386.268 453.291C347.853 426.835 274.125 373.537 221.593 334.279C189.595 310.344 172.848 297.137 173.319 296.453L168.035 303.783L153.919 324.363C151.908 327.526 167.586 342.272 199.477 366.121C251.987 405.357 328.645 454.445 370.675 475.709Z" fill="var(--fill-0, white)"/>
<path d="M410.138 422.689C412.363 420.017 414.608 417.368 416.897 414.718C420.768 410.251 424.661 405.87 428.575 401.575C399.957 363.151 334.186 300.15 281.654 260.871C249.913 237.129 230.256 227.491 226 232.043L211.391 248.455L202.985 258.371C205.124 255.871 223.54 266.941 255.474 290.833C308.005 330.112 377.263 389.137 410.138 422.689Z" fill="var(--fill-0, white)"/>
<path d="M455.183 374.413C461.621 368.258 468.124 362.339 474.669 356.675C456.723 307.844 399.615 236.424 347.083 197.145C316.197 174.043 293.781 167.205 284.199 175.411L259.58 197.786L259.41 197.957C266.725 190.969 288.049 198.854 319.427 222.319C371.958 261.598 432.725 329.685 455.183 374.413Z" fill="var(--fill-0, white)"/>
<path d="M502.325 334.386C508.977 329.407 515.629 324.684 522.324 320.217C515.415 262.944 467.225 184.664 414.715 145.407C385.348 123.459 360.857 118.33 346.142 128.075C338.1 133.46 327.705 141.111 319.812 146.71C332.453 137.307 356.216 143.013 386.332 165.516C438.842 204.774 490.775 280.383 502.325 334.386Z" fill="var(--fill-0, white)"/>
<path d="M550.279 303.014C556.953 299.274 563.626 295.791 570.256 292.564C574.449 228.88 535.285 145.428 482.754 106.149C455.697 85.9112 430.372 81.3379 411.592 90.3776C403.165 94.4807 392.193 100.486 383.872 104.845C401.133 95.2715 426.287 99.9517 454.392 120.959C506.924 160.259 549.873 241.745 550.279 303.014Z" fill="var(--fill-0, white)"/>
<path d="M521.939 89.2879C574.47 128.567 608.458 214.263 597.87 280.682C604.415 278.224 610.896 276.023 617.334 274.121C632.434 206.163 602.083 119.249 549.552 79.9702C525.789 62.19 501.534 57.2108 480.722 63.3868L479.118 63.8783C470.776 66.4214 459.846 70.3963 451.59 73.1958C471.845 65.6948 496.743 70.4391 521.939 89.2879Z" fill="var(--fill-0, white)"/>
<path d="M587.175 70.9305C639.707 110.209 665.074 198.32 643.835 267.753C650.059 266.62 656.198 265.787 662.251 265.231C687.746 195.221 665.844 106.641 613.313 67.3617C594.276 53.1289 573.828 47.3161 554.279 49.0258L540.911 50.5003L523.179 53.2571C543.691 49.6241 566.022 55.1164 587.175 70.9305Z" fill="var(--fill-0, white)"/>
<path d="M648.412 66.4641C700.944 105.743 718.205 194.452 686.977 264.611C692.73 264.868 698.355 265.423 703.852 266.278C738.995 196.504 724.899 108.115 672.368 68.8362C659.62 59.305 645.781 53.5349 631.621 51.2696C623.879 50.1156 613.462 49.1967 605.677 48.3847L598.768 48C615.772 48.7693 632.777 54.7531 648.412 66.4641Z" fill="var(--fill-0, white)"/>
<path d="M684.26 64.9896C681.865 63.9638 679.426 63.0234 676.967 62.2113C679.255 63.0661 681.736 64.0065 684.26 64.9896Z" fill="var(--fill-0, white)"/>
<path d="M726.076 271.578C731.188 273.266 736.129 275.275 740.898 277.583C784.618 210.437 777.474 124.164 724.942 84.8855C719.98 81.167 714.782 78.0042 709.414 75.3756C702.056 72.0418 692.687 68.2379 684.26 64.9896C691.062 67.9173 697.649 71.6784 703.895 76.3586C756.427 115.638 766.373 203.043 726.076 271.578Z" fill="var(--fill-0, white)"/>
<path d="M759.913 289.081C760.02 289.166 760.106 289.23 760.213 289.316C764.384 292.436 768.383 295.855 772.169 299.573C819.717 241.659 821.792 166.264 779.185 124.528C771.421 117.305 760.576 108.201 752.363 101.512L751.678 100.999C751.764 101.063 751.849 101.127 751.935 101.191C804.445 140.47 808.039 224.584 759.913 289.081Z" fill="var(--fill-0, white)"/>
</g>
<defs>
<filter id="filter0_f_203_640" x="0" y="0" width="914" height="993" filterUnits="userSpaceOnUse" color-interpolation-filters="sRGB">
<feFlood flood-opacity="0" result="BackgroundImageFix"/>
<feBlend mode="normal" in="SourceGraphic" in2="BackgroundImageFix" result="shape"/>
<feGaussianBlur stdDeviation="24" result="effect1_foregroundBlur_203_640"/>
</filter>
</defs>
</svg>
