<svg preserveAspectRatio="none" width="100%" height="100%" overflow="visible" style="display: block;" viewBox="0 0 262 39" fill="none" xmlns="http://www.w3.org/2000/svg">
<g id="Layer_1-2">
<path id="Vector" d="M21.9511 38.0511C20.2298 38.6679 18.3663 39 16.4318 39C7.35915 39 0 31.6381 0 22.5444C0 13.4507 7.35915 6.08881 16.4318 6.08881C18.3663 6.08881 20.2219 6.42092 21.9511 7.03771C15.5869 9.30718 11.0308 15.396 11.0308 22.5444C11.0308 29.6928 15.5869 35.7816 21.9511 38.0511ZM38.5013 6.08881C36.5668 6.08881 34.7112 6.42092 32.9819 7.03771C39.3462 9.30718 43.9022 15.396 43.9022 22.5444C43.9022 29.6928 39.3462 35.7816 32.9819 38.0511C34.7033 38.6679 36.5668 39 38.5013 39C47.5818 39 54.9331 31.6302 54.9331 22.5444C54.9331 13.4586 47.5739 6.08881 38.5013 6.08881Z" fill="var(--fill-0, #7DA8E9)"/>
<path id="Vector_2" d="M105.452 34.2397V22.4179C105.452 20.4568 105.452 18.2664 104.631 16.8035C103.944 15.6174 102.76 15.0243 101.117 15.0243C99.2064 15.0243 97.1534 16.2579 95.74 18.219C95.9216 19.3577 95.969 20.6861 95.969 22.0067V34.2397H90.4497V22.4179C90.4497 20.4568 90.4497 18.1241 89.5337 16.6612C88.8941 15.562 87.7571 15.0164 86.2489 15.0164C84.3776 15.0164 82.2851 16.4793 80.9586 18.1636V34.2318H75.4392V10.7305H80.5006L80.7296 13.8777C82.5536 11.4106 85.2856 10.177 87.7492 10.177C90.2128 10.177 92.5816 11.2762 94.0898 13.3717C94.2714 13.6484 94.4056 13.9173 94.5872 14.281C96.727 11.2208 99.7355 10.1691 102.562 10.1691C105.389 10.1691 107.442 11.2682 108.855 13.0949C110.632 15.3802 110.995 18.5274 110.995 21.9988V34.2318H105.436L105.452 34.2397Z" fill="var(--fill-0, #7DA8E9)"/>
<path id="Vector_3" d="M137.731 22.4653C137.731 29.3607 132.583 34.7932 125.556 34.7932C118.528 34.7932 113.38 29.3607 113.38 22.4653C113.38 15.57 118.528 10.1849 125.556 10.1849C132.583 10.1849 137.731 15.6174 137.731 22.4653ZM125.556 15.0243C121.726 15.0243 118.994 18.3534 118.994 22.4653C118.994 26.5773 121.726 29.9538 125.556 29.9538C129.385 29.9538 132.117 26.6247 132.117 22.4653C132.117 18.306 129.385 15.0243 125.556 15.0243Z" fill="var(--fill-0, #7DA8E9)"/>
<path id="Vector_4" d="M163.394 22.4653C163.394 29.3607 158.245 34.7932 151.218 34.7932C144.19 34.7932 139.042 29.3607 139.042 22.4653C139.042 15.57 144.19 10.1849 151.218 10.1849C158.245 10.1849 163.394 15.6174 163.394 22.4653ZM151.218 15.0243C147.388 15.0243 144.656 18.3534 144.656 22.4653C144.656 26.5773 147.388 29.9538 151.218 29.9538C155.048 29.9538 157.78 26.6247 157.78 22.4653C157.78 18.306 155.048 15.0243 151.218 15.0243Z" fill="var(--fill-0, #7DA8E9)"/>
<path id="Vector_5" d="M171.006 10.7305L171.282 14.2019C173.153 11.5055 175.933 10.1849 178.759 10.1849C181.586 10.1849 183.773 11.3236 185.234 13.1977C186.963 15.483 187.335 18.5827 187.335 22.0067V34.2397H181.815V22.4179C181.815 20.4568 181.768 18.2664 180.899 16.8035C180.212 15.6174 179.028 15.0243 177.346 15.0243C175.159 15.0243 172.877 16.4398 171.511 18.6302V34.2476H165.992V10.7305H171.006Z" fill="var(--fill-0, #7DA8E9)"/>
<path id="Vector_6" d="M212.034 26.7591H212.128L216.321 10.778H221.975L215.184 34.2476H209.396L205.156 18.8595H205.061L200.726 34.2476H194.71L188.235 10.778H194.165L197.994 26.8066H198.089L202.606 10.778H207.801L212.041 26.7591H212.034Z" fill="var(--fill-0, #7DA8E9)"/>
<path id="Vector_7" d="M226.712 23.8808C227.076 27.3996 229.444 30.2701 233.274 30.2701C236.33 30.2701 238.288 29.0839 239.749 26.6168L243.484 29.1314C240.886 32.9665 237.83 34.7932 232.95 34.7932C225.702 34.7932 221.146 29.6296 221.146 22.6472C221.146 15.6648 226.294 10.1849 232.95 10.1849C239.607 10.1849 244.029 14.795 244.029 21.0973C244.029 21.9672 243.934 23.0109 243.8 23.8808H226.704H226.712ZM233.092 14.6131C229.721 14.6131 227.763 16.8984 227.028 19.9112H238.383C238.249 16.851 236.014 14.6131 233.092 14.6131Z" fill="var(--fill-0, #7DA8E9)"/>
<path id="Vector_8" d="M252.154 34.2397H246.634V0H252.154V34.2397Z" fill="var(--fill-0, #7DA8E9)"/>
<path id="Vector_9" d="M262 34.2397H256.481V0H262V34.2397Z" fill="var(--fill-0, #7DA8E9)"/>
</g>
</svg>
