<svg preserveAspectRatio="none" width="100%" height="100%" overflow="visible" style="display: block;" viewBox="0 0 106 142" fill="none" xmlns="http://www.w3.org/2000/svg">
<g id="star/simple/smoothcorner" opacity="0.2" filter="url(#filter0_f_203_644)">
<path d="M53 16L55.0962 34.917C56.971 51.8363 65.892 65.0972 77.2741 67.8841L90 71L77.2741 74.1159C65.892 76.9028 56.971 90.1637 55.0962 107.083L53 126L50.9038 107.083C49.029 90.1637 40.108 76.9028 28.7259 74.1159L16 71L28.7259 67.8841C40.108 65.0972 49.029 51.8363 50.9038 34.9169L53 16Z" fill="url(#paint0_linear_203_644)"/>
<path d="M53 16L55.0962 34.917C56.971 51.8363 65.892 65.0972 77.2741 67.8841L90 71L77.2741 74.1159C65.892 76.9028 56.971 90.1637 55.0962 107.083L53 126L50.9038 107.083C49.029 90.1637 40.108 76.9028 28.7259 74.1159L16 71L28.7259 67.8841C40.108 65.0972 49.029 51.8363 50.9038 34.9169L53 16Z" stroke="var(--stroke-0, white)"/>
</g>
<defs>
<filter id="filter0_f_203_644" x="0" y="0" width="106" height="142" filterUnits="userSpaceOnUse" color-interpolation-filters="sRGB">
<feFlood flood-opacity="0" result="BackgroundImageFix"/>
<feBlend mode="normal" in="SourceGraphic" in2="BackgroundImageFix" result="shape"/>
<feGaussianBlur stdDeviation="8" result="effect1_foregroundBlur_203_644"/>
</filter>
<linearGradient id="paint0_linear_203_644" x1="53" y1="16" x2="53" y2="126" gradientUnits="userSpaceOnUse">
<stop stop-color="white"/>
<stop offset="1" stop-color="white" stop-opacity="0.1"/>
</linearGradient>
</defs>
</svg>
