<svg preserveAspectRatio="none" width="100%" height="100%" overflow="visible" style="display: block;" viewBox="0 0 88 124" fill="none" xmlns="http://www.w3.org/2000/svg">
<g id="star/simple/smoothcorner" opacity="0.08" filter="url(#filter0_f_203_642)">
<path d="M44 7L46.0962 25.917C47.971 42.8363 56.892 56.0972 68.2741 58.8841L81 62L68.2741 65.1159C56.892 67.9028 47.971 81.1637 46.0962 98.0831L44 117L41.9038 98.0831C40.029 81.1637 31.108 67.9028 19.7259 65.1159L7 62L19.7259 58.8841C31.108 56.0972 40.029 42.8363 41.9038 25.9169L44 7Z" fill="url(#paint0_linear_203_642)"/>
<path d="M44 7L46.0962 25.917C47.971 42.8363 56.892 56.0972 68.2741 58.8841L81 62L68.2741 65.1159C56.892 67.9028 47.971 81.1637 46.0962 98.0831L44 117L41.9038 98.0831C40.029 81.1637 31.108 67.9028 19.7259 65.1159L7 62L19.7259 58.8841C31.108 56.0972 40.029 42.8363 41.9038 25.9169L44 7Z" stroke="var(--stroke-0, white)"/>
</g>
<defs>
<filter id="filter0_f_203_642" x="0" y="0" width="88" height="124" filterUnits="userSpaceOnUse" color-interpolation-filters="sRGB">
<feFlood flood-opacity="0" result="BackgroundImageFix"/>
<feBlend mode="normal" in="SourceGraphic" in2="BackgroundImageFix" result="shape"/>
<feGaussianBlur stdDeviation="3.5" result="effect1_foregroundBlur_203_642"/>
</filter>
<linearGradient id="paint0_linear_203_642" x1="44" y1="7" x2="44" y2="117" gradientUnits="userSpaceOnUse">
<stop stop-color="white"/>
<stop offset="1" stop-color="white" stop-opacity="0.1"/>
</linearGradient>
</defs>
</svg>
