<svg preserveAspectRatio="none" width="100%" height="100%" overflow="visible" style="display: block;" viewBox="0 0 69 124" fill="none" xmlns="http://www.w3.org/2000/svg">
<g id="star/simple/smoothcorner" opacity="0.08" filter="url(#filter0_f_203_692)">
<path d="M34.5 7L36.058 25.917C37.4514 42.8363 44.0819 56.0972 52.5415 58.8841L62 62L52.5415 65.1159C44.0819 67.9028 37.4514 81.1637 36.058 98.0831L34.5 117L32.942 98.0831C31.5486 81.1637 24.9181 67.9028 16.4585 65.1159L7 62L16.4585 58.8841C24.9181 56.0972 31.5486 42.8363 32.942 25.9169L34.5 7Z" fill="url(#paint0_linear_203_692)"/>
<path d="M34.5 7L36.058 25.917C37.4514 42.8363 44.0819 56.0972 52.5415 58.8841L62 62L52.5415 65.1159C44.0819 67.9028 37.4514 81.1637 36.058 98.0831L34.5 117L32.942 98.0831C31.5486 81.1637 24.9181 67.9028 16.4585 65.1159L7 62L16.4585 58.8841C24.9181 56.0972 31.5486 42.8363 32.942 25.9169L34.5 7Z" stroke="var(--stroke-0, white)"/>
</g>
<defs>
<filter id="filter0_f_203_692" x="0" y="0" width="69" height="124" filterUnits="userSpaceOnUse" color-interpolation-filters="sRGB">
<feFlood flood-opacity="0" result="BackgroundImageFix"/>
<feBlend mode="normal" in="SourceGraphic" in2="BackgroundImageFix" result="shape"/>
<feGaussianBlur stdDeviation="3.5" result="effect1_foregroundBlur_203_692"/>
</filter>
<linearGradient id="paint0_linear_203_692" x1="34.5" y1="7" x2="34.5" y2="117" gradientUnits="userSpaceOnUse">
<stop stop-color="white"/>
<stop offset="1" stop-color="white" stop-opacity="0.1"/>
</linearGradient>
</defs>
</svg>
