<svg preserveAspectRatio="none" width="100%" height="100%" overflow="visible" style="display: block;" viewBox="0 0 104 68" fill="none" xmlns="http://www.w3.org/2000/svg">
<g id="star/simple/smoothcorner" opacity="0.1" filter="url(#filter0_f_203_651)">
<path d="M52 16L54.0395 22.191C55.8636 27.7282 64.5435 32.0682 75.618 32.9802L88 34L75.618 35.0198C64.5435 35.9318 55.8636 40.2718 54.0395 45.809L52 52L49.9605 45.809C48.1363 40.2718 39.4565 35.9318 28.382 35.0198L16 34L28.382 32.9802C39.4565 32.0682 48.1363 27.7282 49.9605 22.191L52 16Z" fill="url(#paint0_linear_203_651)"/>
<path d="M52 16L54.0395 22.191C55.8636 27.7282 64.5435 32.0682 75.618 32.9802L88 34L75.618 35.0198C64.5435 35.9318 55.8636 40.2718 54.0395 45.809L52 52L49.9605 45.809C48.1363 40.2718 39.4565 35.9318 28.382 35.0198L16 34L28.382 32.9802C39.4565 32.0682 48.1363 27.7282 49.9605 22.191L52 16Z" stroke="var(--stroke-0, white)"/>
</g>
<defs>
<filter id="filter0_f_203_651" x="0" y="0" width="104" height="68" filterUnits="userSpaceOnUse" color-interpolation-filters="sRGB">
<feFlood flood-opacity="0" result="BackgroundImageFix"/>
<feBlend mode="normal" in="SourceGraphic" in2="BackgroundImageFix" result="shape"/>
<feGaussianBlur stdDeviation="8" result="effect1_foregroundBlur_203_651"/>
</filter>
<linearGradient id="paint0_linear_203_651" x1="52" y1="16" x2="52" y2="52" gradientUnits="userSpaceOnUse">
<stop stop-color="white"/>
<stop offset="1" stop-color="white" stop-opacity="0.1"/>
</linearGradient>
</defs>
</svg>
